<svg width="98" height="25" viewBox="0 0 98 25" fill="none" xmlns="http://www.w3.org/2000/svg">
<path d="M49.5324 1.73701L49.5099 3.80384C49.4655 3.93567 49.4655 4.0675 49.4655 4.22155H48.4896L48.4676 1.73701H49.5324ZM49 5.98079H49.5099L49.488 8.86081H48.512L48.4896 5.98079H49ZM45.961 10.5978H46.4046C46.4934 10.7079 46.5597 10.7958 46.6266 10.862L46.5822 16.0291H45.8947L45.961 10.5978ZM52.039 10.5978L52.1053 16.0291H51.4178L51.3734 10.5978H52.039ZM42.9001 5.95856L46.6929 5.95856L46.671 8.75121L46.6041 8.81687H45.0959C44.6079 8.81687 44.2088 9.21287 44.2088 9.67452L44.1419 16.0068H42.8557L42.9001 5.95856ZM55.0999 5.95856L55.1663 16.0291H53.88L53.8132 9.69675C53.8132 9.21287 53.414 8.8391 52.9261 8.8391H51.3515L51.329 5.98079L55.0999 5.95856ZM38.2415 6.64044C38.2196 6.64044 38.2196 6.64044 38.1971 6.64044C37.7092 6.66215 37.332 7.05815 37.3545 7.56374L37.554 12.1591H29.2578C29.0138 12.1591 28.7923 12.2692 28.6147 12.4232C28.4371 12.599 28.3707 12.8409 28.3707 13.0829L28.5483 16.4246L17.7899 16.7766C17.5459 16.7766 17.3239 16.8867 17.1687 17.0625C17.0135 17.2383 16.9247 17.4802 16.9472 17.7221L17.1687 20.6022C17.2131 21.0643 17.5903 21.4159 18.0563 21.4159C18.0783 21.4159 18.1002 21.4159 18.1227 21.4159C18.6106 21.3719 18.9653 20.9542 18.9434 20.4703L18.7882 18.5136L29.5242 18.1616C29.7682 18.1616 29.9897 18.052 30.1454 17.8757C30.3006 17.6999 30.3894 17.4802 30.3669 17.2383L30.1898 13.94H38.4855C38.7295 13.94 38.9515 13.8521 39.1292 13.6764C39.3063 13.5006 39.3951 13.2804 39.3731 13.0384L39.1511 7.5198C39.1067 7.01421 38.7076 6.64044 38.2415 6.64044ZM59.7579 6.64044C59.2924 6.64044 58.8933 7.01421 58.8708 7.47586L58.6493 12.9945C58.6493 13.2364 58.7376 13.4566 58.8933 13.6324C59.0704 13.8082 59.2924 13.8961 59.5364 13.8961H67.8327L67.655 17.1943C67.6326 17.4363 67.7214 17.656 67.8771 17.8317C68.0322 18.008 68.2537 18.1176 68.4977 18.1176L79.2342 18.4697L79.0785 20.4264C79.0341 20.9103 79.4113 21.328 79.8993 21.3719C79.9217 21.3719 79.9437 21.3719 79.9661 21.3719C80.4316 21.3719 80.8088 21.0204 80.8532 20.5582L81.0753 17.6782C81.0972 17.4363 81.0084 17.1943 80.8532 17.0185C80.6981 16.8423 80.4541 16.7327 80.2321 16.7327L69.4741 16.3806L69.6512 13.0384C69.6737 12.797 69.5849 12.5551 69.4073 12.3788C69.2296 12.203 69.0081 12.1151 68.7641 12.1151H60.4679L60.6675 7.5198C60.69 7.03592 60.3128 6.61821 59.8248 6.5965C59.7804 6.64044 59.7804 6.64044 59.7579 6.64044ZM47.58 0C47.3361 0 47.1145 0.0878844 46.9594 0.263653C46.8037 0.439939 46.6929 0.65965 46.6929 0.879361L46.7154 4.22155L42.0125 4.22155C41.5245 4.22155 41.1254 4.61755 41.1254 5.10091L41.059 16.073L33.384 16.073C32.896 16.073 32.4964 16.4685 32.4964 16.9524C32.4964 17.4363 32.896 17.8317 33.384 17.8317L41.0366 17.8317L41.0146 19.8329L23.2686 19.8329C22.7807 19.8329 22.3815 20.2284 22.3815 20.7123C22.3815 21.1962 22.7807 21.5916 23.2686 21.5916L41.8798 21.5916C42.3677 21.5916 42.7669 21.1962 42.7669 20.7123L42.7888 17.81H43.9648C44.0092 17.8317 44.0311 17.8757 44.0756 17.8979L44.0092 22.7791L0.887091 23.2408C0.399139 23.2408 0 23.6368 0 24.1206C0 24.3621 0.0888135 24.5823 0.265918 24.7358C0.421603 24.8899 0.665579 25 0.887091 25L44.9182 24.5161C45.4062 24.5161 45.7834 24.1206 45.7834 23.6585L45.8503 17.8979C45.8947 17.8757 45.9391 17.854 45.983 17.81H47.4473C47.9353 17.81 48.3344 17.414 48.3344 16.9307L48.4008 10.6418H49.5987L49.6656 16.9307C49.6656 17.414 50.0647 17.81 50.5527 17.81H52.1497L52.2161 23.6585C52.2161 24.1424 52.6158 24.5161 53.0812 24.5161L97.1129 25C97.3344 25 97.5784 24.9121 97.7336 24.7358C97.9112 24.5601 98 24.3404 98 24.1206C98 23.6368 97.6009 23.2408 97.1129 23.2408L53.9464 22.7574L53.88 17.7878H55.1443L55.1663 20.6906C55.1663 21.1739 55.5659 21.5699 56.0539 21.5699H74.6645C75.1525 21.5699 75.5516 21.1739 75.5516 20.6906C75.5516 20.2067 75.1525 19.8107 74.6645 19.8107H56.919L56.8966 17.81H64.5497C65.0376 17.81 65.4368 17.414 65.4368 16.9307C65.4368 16.4468 65.0376 16.0508 64.5497 16.0508H56.8746V5.0792C56.8746 4.59532 56.4755 4.19984 55.987 4.19984L51.573 4.22155C51.551 4.19984 51.5286 4.17761 51.5066 4.17761C51.4842 4.1559 51.3954 4.08972 51.2846 4.02355L51.3071 0.879361C51.3071 0.63742 51.2182 0.417709 51.0406 0.263653C50.863 0.110114 50.6415 0 50.4194 0L47.58 0Z" fill="#F3EF85"/>
</svg>
