<svg width="86" height="39" viewBox="0 0 86 39" fill="none" xmlns="http://www.w3.org/2000/svg">
<path fill-rule="evenodd" clip-rule="evenodd" d="M37.6883 1.99791L37.3907 2.29304L37.6858 2.59065L37.8336 2.68557L38.2118 2.44467L38.3877 2.27027L38.1462 2.02677C37.895 1.95387 37.7424 1.94425 37.6883 1.99791ZM40.8047 0.91977L40.2772 1.44295L40.6524 1.90256L40.948 2.0924C41.2891 2.14772 41.5678 2.06806 41.7843 1.85342C41.8654 1.77293 41.8082 1.50775 41.6125 1.05787C41.1642 0.876371 40.8949 0.830337 40.8047 0.91977ZM38.7866 3.51134L38.7325 3.565C38.9743 3.73665 39.5164 4.03081 40.3589 4.44747C40.4932 4.52886 40.6538 4.79897 40.8404 5.25779C41.5751 5.674 41.9784 5.90022 42.05 5.93644C42.5597 6.46846 44.1982 7.6788 46.9654 9.56745C48.203 10.0037 50.0243 10.4425 52.4294 10.8836C52.7166 10.9387 53.7292 11.4729 55.4673 12.486C56.2764 12.2918 56.9228 12.3574 57.4064 12.6828C57.7823 12.9897 58.0016 13.1657 58.0643 13.2109C58.3096 13.2901 58.5519 13.3744 58.7913 13.464C58.4221 13.5091 58.2037 13.5156 58.1362 13.4835C58.1744 13.5622 57.9421 13.7601 57.4393 14.0771C56.313 14.1617 55.5646 14.148 55.1941 14.036C52.5774 13.5551 50.5937 13.3263 49.2431 13.3495C48.3675 13.7502 47.4537 14.0721 46.5017 14.3153L45.6186 14.5251C44.3427 14.8526 42.6184 15.0329 40.4457 15.066L40.1513 15.136C39.6801 15.2674 39.5257 15.5004 39.6881 15.835C36.5555 15.945 34.6949 16.0698 34.1062 16.2097L33.9442 16.2518C33.6765 16.552 33.5761 16.771 33.6429 16.9088C32.534 17.1795 30.6588 17.2993 28.0172 17.2682C24.4409 17.6665 21.8209 17.8803 20.1571 17.9096L19.5683 18.0495L19.8263 18.5809L20.1172 18.8045C18.9594 19.0746 17.162 19.2296 14.7251 19.2694C14.7537 19.3285 14.2608 19.6407 13.2463 20.2061C12.8144 20.3184 11.6985 20.3493 9.89868 20.2988C9.78957 20.4247 9.62704 20.5158 9.41111 20.5719L8.82236 20.7118C4.39275 20.4542 1.56951 20.4748 0.352641 20.7736L0.220215 20.8014L0.349187 21.0671C1.039 21.4862 1.78147 21.5879 2.5766 21.3722C7.76232 22.2356 10.6594 22.5926 11.2678 22.4432C11.2655 22.6388 11.2835 22.776 11.3217 22.8548C10.4079 23.1767 9.99399 23.4263 10.08 23.6034C10.4774 23.9212 11.0475 24.1187 11.7903 24.1959C13.3996 23.8039 15.0403 24.0776 16.7123 25.0171C16.9989 25.6076 19.4094 25.7387 23.9437 25.4104C24.2283 25.3453 24.5488 25.1289 24.9054 24.7612C25.4531 24.7872 26.2484 24.9727 27.2913 25.3177L28.1306 25.0927C28.3269 25.0461 29.3446 25.0385 31.1838 25.0699C32.273 24.8088 34.8607 24.8539 38.9467 25.2053C41.0065 24.7892 43.1075 24.6085 45.2498 24.663C45.3774 24.6254 45.8343 24.4644 46.6205 24.1801C47.5922 23.9273 48.6801 24.1897 49.8843 24.9671C53.2874 24.3124 55.2381 24.0222 55.7363 24.0965C57.5888 24.3885 59.253 24.6151 60.7288 24.7765C59.8825 25.226 58.9943 25.6009 58.0643 25.9011C58.0016 25.9463 57.7823 26.1224 57.4064 26.4293C56.9228 26.7547 56.2764 26.8202 55.4673 26.626C53.7292 27.6392 52.7166 28.1733 52.4294 28.2284C50.0243 28.6696 48.203 29.1083 46.9654 29.5446C44.1982 31.4333 42.5597 32.6436 42.05 33.1756C41.9784 33.2118 41.5751 33.4381 40.8404 33.8543C40.6538 34.3131 40.4932 34.5832 40.3589 34.6646C39.5164 35.0812 38.9743 35.3754 38.7325 35.5471L38.7866 35.6007C38.8768 35.6902 38.9803 35.7481 39.0972 35.7745C39.3123 35.6838 39.465 35.6832 39.5552 35.7726C39.7626 35.9783 40.3996 35.823 41.4662 35.3066L41.5339 35.3737C41.4353 35.4369 41.3238 35.6036 41.1992 35.8735C41.4066 36.0792 41.7839 36.0956 42.331 35.9226L42.6832 36.3792L43.2108 36.9024C45.2414 37.1274 46.3374 37.1946 46.4987 37.1042C47.6224 37.3599 48.3275 37.3884 48.6141 37.1896C48.8912 36.8741 49.2313 36.5853 49.6343 36.3231C50.8719 35.9048 51.5893 35.6324 51.7863 35.5058L52.121 35.006C52.7303 34.6621 53.0754 34.4945 53.1562 34.5032C53.1202 34.4674 53.2093 34.3143 53.4238 34.044C54.0244 33.781 54.4369 33.6446 54.6614 33.6347C56.1872 33.3948 57.3178 33.1386 58.0531 32.866C58.4556 32.4782 58.8942 32.1261 59.3689 31.8097L59.8122 31.525C60.4481 31.1002 61.3579 30.6698 62.5416 30.2337L62.6894 30.1388C62.9222 29.9762 62.9619 29.8188 62.8086 29.6668C64.5033 29.0041 65.4984 28.5778 65.794 28.3879L65.8746 28.3337C65.9635 28.1178 65.9764 27.9785 65.9132 27.9159C66.4685 27.5544 67.4726 27.128 68.9255 26.637C70.8078 25.731 72.2017 25.1099 73.1074 24.7738L73.403 24.584L73.1595 24.3425L72.9571 24.276C73.5393 23.9053 74.494 23.4747 75.8212 22.9842C75.7941 22.9574 76.0041 22.6915 76.451 22.1867C76.6659 22.0421 77.2712 21.8106 78.2667 21.4921C78.3023 21.4021 78.3738 21.321 78.4813 21.2487L78.7769 21.0588C80.0084 20.7052 81.009 20.3903 81.7786 20.1142C81.9366 20.0812 82.0686 20.0494 82.1746 20.019L82.1536 19.9758C82.2788 19.9281 82.3964 19.8818 82.5064 19.8367C82.7741 19.9261 83.0552 19.9398 83.3496 19.8776L83.4713 19.7569L83.4041 19.7162C83.3263 19.6653 83.2332 19.612 83.1249 19.556C83.2332 19.5001 83.3263 19.4467 83.4041 19.3959L83.4713 19.3552L83.3496 19.2345C83.0552 19.1723 82.7742 19.1859 82.5064 19.2754C81.6856 18.9389 80.4425 18.5315 78.7769 18.0532L78.4813 17.8634C78.3738 17.7911 78.3023 17.71 78.2667 17.62C77.2712 17.3015 76.6659 17.0699 76.451 16.9253L76.3669 16.8299L76.2286 16.4117L75.6697 15.2603C72.4977 13.7356 70.7548 13.0008 70.441 13.0559C68.7607 11.9989 67.6309 11.5501 67.0517 11.7097C67.0301 11.7218 67.0084 11.7339 66.9866 11.7458C66.5307 11.5484 66.1729 11.3652 65.9132 11.1961C65.9764 11.1335 65.9635 10.9943 65.8746 10.7783L65.794 10.7241C65.4984 10.5343 64.5033 10.108 62.8086 9.44526C62.9619 9.29322 62.9222 9.13589 62.6894 8.97325L62.5416 8.87833C61.3579 8.44228 60.4481 8.01186 59.8122 7.58708L59.3689 7.30232C58.8942 6.98599 58.4556 6.63389 58.0531 6.24602C57.3178 5.9735 56.1872 5.71729 54.6614 5.47739C54.4369 5.46746 54.0244 5.33102 53.4238 5.06805C53.2093 4.79772 53.1202 4.64467 53.1562 4.60889C53.0754 4.61753 52.7303 4.44994 52.121 4.1061L51.7863 3.60625C51.5893 3.47969 50.8719 3.20725 49.6343 2.78893C49.2313 2.52679 48.8912 2.23797 48.6141 1.92247C48.3275 1.72368 47.6224 1.75216 46.4987 2.0079C46.3374 1.91741 45.2414 1.98467 43.2108 2.20966L42.6832 2.73284L42.331 3.1894C41.7839 3.01647 41.4066 3.03285 41.1992 3.23855C41.3238 3.5085 41.4353 3.67512 41.5339 3.7384L41.4662 3.80547C40.3996 3.28908 39.7626 3.13373 39.5552 3.33943C39.465 3.42886 39.3123 3.42822 39.0972 3.33751C38.9803 3.36396 38.8768 3.4219 38.7866 3.51134ZM77.5226 18.702C77.5283 18.7006 77.5341 18.6991 77.54 18.6975C77.6592 18.7325 77.8003 18.7702 77.9633 18.8105C77.8438 18.8222 77.7208 18.8352 77.5943 18.8496L77.5226 18.702ZM84.7662 18.068L85.0814 18.7175L84.4319 19.0328L84.1375 19.1027L83.6603 18.4953L83.474 18.1115L84.0054 17.8536C84.4553 17.8784 84.7088 17.9499 84.7662 18.068ZM80.3163 14.5371L80.8752 15.6885L80.003 16.2213L79.4142 16.3611C78.8283 16.2564 78.4208 15.9678 78.1915 15.4955C78.1055 15.3183 78.3499 14.92 78.9247 14.3005C79.7569 14.2614 80.2208 14.3402 80.3163 14.5371ZM37.3907 36.819L37.6883 37.1141C37.7424 37.1678 37.895 37.1582 38.1462 37.0853L38.3877 36.8418L38.2118 36.6674L37.8336 36.4265L37.6858 36.5214L37.3907 36.819ZM40.2772 37.6691L40.8047 38.1923C40.8949 38.2817 41.1642 38.2357 41.6125 38.0542C41.8082 37.6043 41.8654 37.3391 41.7843 37.2586C41.5678 37.044 41.2891 36.9643 40.948 37.0197L40.6524 37.2095L40.2772 37.6691Z" fill="#FEFDDB"/>
</svg>
