<svg width="110" height="110" viewBox="0 0 110 110" fill="none" xmlns="http://www.w3.org/2000/svg">
<path d="M5.18736 17.4716C5.15959 17.4716 5.15959 17.4716 5.18736 17.4716C4.63366 17.4716 4.16267 17.942 4.19045 18.4957L4.30094 73.734C4.30094 74.3154 4.74415 74.758 5.29786 74.758L10.9466 74.8136H10.9738C11.2509 74.8136 11.5003 74.7031 11.6942 74.5093C11.888 74.3154 11.9985 74.0383 11.9985 73.7611C11.9985 73.1803 11.5553 72.7093 11.0016 72.7093L6.35033 72.6537L6.1565 18.4407C6.1565 17.8864 5.71329 17.4438 5.18736 17.4716ZM34.7306 97.1303C34.4534 97.1303 34.1769 97.2407 33.983 97.4624C33.7892 97.684 33.6781 97.9611 33.6781 98.2377L33.817 104.191C33.817 104.772 34.2874 105.243 34.8411 105.243L90.4114 105.326C90.9651 105.326 91.4361 104.828 91.4084 104.246C91.4084 103.637 90.9374 103.166 90.3559 103.166L35.838 103.083L35.7275 98.1821C35.7547 97.6006 35.2843 97.1025 34.7306 97.1303ZM1.22749 0C0.673784 0 0.231191 0.44321 0.231191 0.996914L0.313907 107.541C0.00958634 107.846 -0.073747 108.316 0.0651419 108.731C0.147858 108.953 0.28613 109.119 0.479957 109.257C0.591068 109.451 0.757117 109.59 0.978722 109.701C1.11699 109.756 1.22749 109.784 1.36638 109.784C1.64292 109.784 1.92008 109.673 2.11391 109.451L108.769 109.645C109.35 109.645 109.793 109.147 109.765 108.538C109.738 107.956 109.267 107.458 108.713 107.458L4.1349 107.264L19.4744 90.9556L29.8571 91.0667L29.83 103.028L14.546 102.972L20.8312 96.0506L25.1226 96.2167V98.8469L20.6923 98.7364H20.6651C20.1108 98.7364 19.6405 99.2068 19.6405 99.7883C19.6127 100.37 20.0559 100.868 20.6374 100.896L26.1472 101.034H26.175C26.4516 101.034 26.7009 100.923 26.8948 100.73C27.0886 100.536 27.1991 100.231 27.1991 99.9543L27.1713 95.192C27.1713 94.6105 26.7287 94.1673 26.2028 94.1401L20.4713 93.9185C20.4435 93.9185 20.4435 93.9185 20.4158 93.9185C20.1386 93.9185 19.8621 94.0568 19.6682 94.2506L11.3892 103.277C11.1127 103.581 11.0293 104.052 11.1676 104.44C11.3337 104.828 11.6942 105.077 12.109 105.104L30.8263 105.16C30.8263 105.16 30.8263 105.16 30.854 105.16C31.1312 105.16 31.38 105.049 31.5738 104.828C31.7676 104.634 31.8787 104.357 31.8787 104.052L31.9065 89.9593C31.9065 89.3778 31.4633 88.9068 30.9096 88.9068L20.0281 88.7963L19.8343 77.5821C19.8343 77.0006 19.3633 76.558 18.8096 76.558L5.38119 76.7519C5.10403 76.7519 4.85465 76.8623 4.66082 77.084C4.46699 77.2778 4.3565 77.5549 4.3565 77.8315L4.41206 97.0747C4.41206 97.4901 4.66082 97.8778 5.02131 98.0438C5.15959 98.0994 5.29786 98.1272 5.40897 98.1272C5.65773 98.1272 5.9349 98.0161 6.12872 97.8222L14.7948 89.2111C15.0164 88.9901 15.1275 88.6852 15.1275 88.3809L14.8781 82.4556C14.8503 81.9019 14.4071 81.4586 13.8534 81.4586L9.2849 81.4864C9.00835 81.4864 8.73119 81.5969 8.53736 81.8185C8.34354 82.0401 8.23304 82.3173 8.23304 82.5938L8.37132 88.2698C8.39909 88.8512 8.8423 89.2944 9.39601 89.2944H9.42378C10.0046 89.2667 10.4479 88.7685 10.4201 88.187L10.2818 83.6185L12.8016 83.5907L12.9676 88.021L6.35033 94.5549L6.40527 78.8562L17.8133 78.6901L17.9793 89.4049L2.36329 105.436L2.19662 0.969136C2.19662 0.415432 1.78181 0 1.22749 0Z" fill="#F2F1C8"/>
</svg>
