<svg width="121" height="121" viewBox="0 0 121 121" fill="none" xmlns="http://www.w3.org/2000/svg">
<path d="M114.94 100.967C114.97 100.967 114.97 100.967 114.94 100.967C115.545 100.967 116.06 100.452 116.03 99.8465L115.909 39.4297C115.909 38.7937 115.424 38.3096 114.819 38.3096L108.64 38.2488H108.611C108.308 38.2488 108.035 38.3697 107.823 38.5817C107.611 38.7937 107.49 39.0968 107.49 39.3999C107.49 40.0353 107.975 40.5504 108.58 40.5504L113.668 40.6112L113.88 99.9066C113.88 100.513 114.364 100.997 114.94 100.967ZM82.6267 13.84C82.9299 13.84 83.2323 13.7191 83.4443 13.4767C83.6563 13.2343 83.7779 12.9312 83.7779 12.6287L83.6259 6.11754C83.6259 5.48154 83.1115 4.96708 82.5059 4.96708L21.7258 4.87593C21.1202 4.87593 20.605 5.42078 20.6354 6.05677C20.6354 6.72315 21.1505 7.23829 21.7865 7.23829L81.4155 7.32877L81.5363 12.6895C81.5066 13.3255 82.0211 13.8703 82.6267 13.84ZM119.271 120.076C119.876 120.076 120.36 119.591 120.36 118.986L120.27 2.45348C120.603 2.11995 120.694 1.60548 120.542 1.1511C120.452 0.908722 120.3 0.727106 120.088 0.575871C119.967 0.363873 119.785 0.211963 119.543 0.0911105C119.392 0.0303465 119.271 -3.53595e-05 119.119 -3.53595e-05C118.816 -3.53595e-05 118.513 0.121493 118.301 0.363873L1.64735 0.151874C1.01136 0.151874 0.527274 0.696724 0.557655 1.3631C0.587362 1.9991 1.10251 2.54395 1.70812 2.54395L116.091 2.75594L99.3132 20.5935L87.9571 20.472L87.9868 7.38953L104.704 7.45029L97.8292 15.0208L93.1355 14.8392V11.9624L97.9811 12.0832H98.0108C98.6171 12.0832 99.1315 11.5687 99.1315 10.9327C99.1619 10.2967 98.6772 9.75189 98.0412 9.72151L92.0147 9.57028H91.9844C91.6819 9.57028 91.4091 9.69113 91.1971 9.90313C90.9851 10.1151 90.8643 10.448 90.8643 10.7511L90.8947 15.9599C90.8947 16.5959 91.3787 17.0807 91.954 17.1104L98.2228 17.3528C98.2532 17.3528 98.2532 17.3528 98.2835 17.3528C98.5867 17.3528 98.8892 17.2015 99.1012 16.9895L108.156 7.11677C108.459 6.78392 108.55 6.26877 108.399 5.84478C108.217 5.42078 107.823 5.14869 107.369 5.11831L86.8971 5.05755C86.8971 5.05755 86.8971 5.05755 86.8667 5.05755C86.5635 5.05755 86.2915 5.17907 86.0795 5.42078C85.8675 5.63278 85.7459 5.93592 85.7459 6.26877L85.7155 21.6832C85.7155 22.3192 86.2003 22.8344 86.8059 22.8344L98.7075 22.9552L98.9195 35.2207C98.9195 35.8567 99.4347 36.3408 100.04 36.3408L114.728 36.1288C115.031 36.1288 115.304 36.008 115.516 35.7656C115.728 35.5536 115.848 35.2505 115.848 34.948L115.788 13.9007C115.788 13.4463 115.516 13.0223 115.121 12.8407C114.97 12.78 114.819 12.7496 114.697 12.7496C114.425 12.7496 114.122 12.8711 113.91 13.0831L104.432 22.5015C104.189 22.7432 104.068 23.0767 104.068 23.4096L104.34 29.8904C104.371 30.496 104.855 30.9808 105.461 30.9808L110.458 30.9504C110.76 30.9504 111.064 30.8295 111.276 30.5872C111.488 30.3448 111.608 30.0416 111.608 29.7392L111.457 23.5311C111.427 22.8951 110.942 22.4104 110.336 22.4104H110.306C109.671 22.4407 109.186 22.9856 109.216 23.6216L109.368 28.6184L106.612 28.6488L106.43 23.8032L113.668 16.6567L113.608 33.8272L101.13 34.0088L100.948 22.2895L118.028 4.75508L118.211 119.016C118.211 119.622 118.664 120.076 119.271 120.076Z" fill="#FBF8D0"/>
</svg>
