<svg width="203" height="57" viewBox="0 0 203 57" fill="none" xmlns="http://www.w3.org/2000/svg">
<g filter="url(#filter0_d_276_72)">
<path d="M102.522 5.54637L102.477 9.76612C102.387 10.0353 102.387 10.3044 102.387 10.6189H100.415L100.371 5.54637H102.522ZM101.446 14.2107H102.477L102.432 20.0907H100.461L100.415 14.2107H101.446ZM95.3068 23.6371H96.2029C96.3823 23.8619 96.5164 24.0413 96.6515 24.1764L96.5617 34.7258H95.1727L95.3068 23.6371ZM107.586 23.6371L107.72 34.7258H106.331L106.241 23.6371H107.586ZM89.1228 14.1653L96.7855 14.1653L96.7412 19.8669L96.6061 20.001H93.5589C92.5731 20.001 91.7668 20.8095 91.7668 21.752L91.6317 34.6804H89.0331L89.1228 14.1653ZM113.77 14.1653L113.904 34.7258H111.306L111.17 21.7974C111.17 20.8095 110.364 20.0464 109.378 20.0464H106.197L106.152 14.2107L113.77 14.1653ZM79.7112 15.5575C79.6669 15.5575 79.6669 15.5575 79.6215 15.5575C78.6357 15.6018 77.8737 16.4103 77.919 17.4425L78.3222 26.8246H61.5614C61.0685 26.8246 60.621 27.0494 60.2621 27.3639C59.9033 27.7228 59.7692 28.2167 59.7692 28.7107L60.1281 35.5332L38.3929 36.252C37.9 36.252 37.4514 36.4768 37.1379 36.8357C36.8245 37.1945 36.645 37.6885 36.6904 38.1824L37.1379 44.0624C37.2277 45.006 37.9897 45.7237 38.9312 45.7237C38.9755 45.7237 39.0198 45.7237 39.0652 45.7237C40.051 45.634 40.7677 44.7812 40.7234 43.7933L40.4099 39.7984L62.0997 39.0796C62.5926 39.0796 63.0401 38.8558 63.3547 38.4959C63.6681 38.1371 63.8476 37.6885 63.8022 37.1945L63.4444 30.4606H80.2041C80.697 30.4606 81.1456 30.2812 81.5045 29.9224C81.8623 29.5635 82.0417 29.1139 81.9974 28.6199L81.5488 17.3528C81.4591 16.3206 80.6527 15.5575 79.7112 15.5575ZM123.181 15.5575C122.24 15.5575 121.434 16.3206 121.388 17.2631L120.941 28.5302C120.941 29.0242 121.119 29.4738 121.434 29.8326C121.792 30.1915 122.24 30.3709 122.733 30.3709H139.494L139.135 37.1048C139.09 37.5988 139.269 38.0473 139.584 38.4062C139.897 38.7661 140.345 38.9899 140.837 38.9899L162.528 39.7086L162.214 43.7036C162.124 44.6915 162.886 45.5443 163.872 45.634C163.917 45.634 163.962 45.634 164.007 45.634C164.948 45.634 165.71 44.9163 165.799 43.9727L166.248 38.0927C166.292 37.5988 166.113 37.1048 165.799 36.7459C165.486 36.386 164.993 36.1623 164.544 36.1623L142.81 35.4435L143.168 28.6199C143.213 28.127 143.034 27.6331 142.675 27.2731C142.316 26.9143 141.869 26.7349 141.376 26.7349H124.615L125.018 17.3528C125.064 16.3649 124.302 15.5121 123.316 15.4677C123.226 15.5575 123.226 15.5575 123.181 15.5575ZM98.5777 2C98.0848 2 97.6373 2.17943 97.3238 2.53829C97.0093 2.8982 96.7855 3.34677 96.7855 3.79535L96.8309 10.6189L87.3296 10.6189C86.3438 10.6189 85.5374 11.4274 85.5374 12.4143L85.4034 34.8155L69.8975 34.8155C68.9117 34.8155 68.1043 35.6229 68.1043 36.6108C68.1043 37.5988 68.9117 38.4062 69.8975 38.4062L85.358 38.4062L85.3136 42.4919L49.4616 42.4919C48.4758 42.4919 47.6694 43.2993 47.6694 44.2873C47.6694 45.2752 48.4758 46.0826 49.4616 46.0826L87.0615 46.0826C88.0473 46.0826 88.8537 45.2752 88.8537 44.2873L88.898 38.3619H91.2739C91.3636 38.4062 91.4079 38.4959 91.4976 38.5413L91.3636 48.507L4.24433 49.4495C3.25852 49.4495 2.45215 50.258 2.45215 51.2459C2.45215 51.7388 2.63158 52.1885 2.98938 52.5019C3.30391 52.8165 3.79681 53.0413 4.24433 53.0413L93.2001 52.0534C94.1859 52.0534 94.9479 51.2459 94.9479 50.3024L95.083 38.5413C95.1727 38.4959 95.2625 38.4516 95.3511 38.3619H98.3096C99.2954 38.3619 100.102 37.5534 100.102 36.5665L100.236 23.7268H102.656L102.791 36.5665C102.791 37.5534 103.597 38.3619 104.583 38.3619H107.81L107.944 50.3024C107.944 51.2903 108.751 52.0534 109.692 52.0534L198.649 53.0413C199.096 53.0413 199.589 52.8619 199.902 52.5019C200.261 52.1431 200.441 51.6945 200.441 51.2459C200.441 50.258 199.634 49.4495 198.649 49.4495L111.44 48.4627L111.306 38.3165H113.86L113.904 44.2429C113.904 45.2298 114.712 46.0383 115.697 46.0383H153.296C154.282 46.0383 155.088 45.2298 155.088 44.2429C155.088 43.255 154.282 42.4465 153.296 42.4465H117.445L117.4 38.3619H132.861C133.847 38.3619 134.654 37.5534 134.654 36.5665C134.654 35.5786 133.847 34.7701 132.861 34.7701H117.355V12.37C117.355 11.382 116.549 10.5746 115.562 10.5746L106.645 10.6189C106.6 10.5746 106.555 10.5292 106.511 10.5292C106.465 10.4849 106.286 10.3498 106.062 10.2147L106.107 3.79535C106.107 3.30139 105.928 2.85282 105.569 2.53829C105.21 2.22481 104.763 2 104.314 2L98.5777 2Z" fill="#FFFBEC"/>
</g>
<defs>
<filter id="filter0_d_276_72" x="0.333101" y="0.940476" width="202.227" height="55.2796" filterUnits="userSpaceOnUse" color-interpolation-filters="sRGB">
<feFlood flood-opacity="0" result="BackgroundImageFix"/>
<feColorMatrix in="SourceAlpha" type="matrix" values="0 0 0 0 0 0 0 0 0 0 0 0 0 0 0 0 0 0 127 0" result="hardAlpha"/>
<feOffset dy="1.05952"/>
<feGaussianBlur stdDeviation="1.05952"/>
<feComposite in2="hardAlpha" operator="out"/>
<feColorMatrix type="matrix" values="0 0 0 0 0 0 0 0 0 0 0 0 0 0 0 0 0 0 0.25 0"/>
<feBlend mode="normal" in2="BackgroundImageFix" result="effect1_dropShadow_276_72"/>
<feBlend mode="normal" in="SourceGraphic" in2="effect1_dropShadow_276_72" result="shape"/>
</filter>
</defs>
</svg>
