<svg width="71" height="71" viewBox="0 0 71 71" fill="none" xmlns="http://www.w3.org/2000/svg">
<path d="M3.35533 59.7007C3.33737 59.7007 3.33737 59.7007 3.35533 59.7007C2.99718 59.7007 2.69253 59.3965 2.7105 59.0384L2.78197 23.3144C2.78197 22.9384 3.06865 22.6521 3.4268 22.6521L7.08059 22.6162H7.09815C7.27743 22.6162 7.43874 22.6877 7.56411 22.813C7.68948 22.9384 7.76095 23.1176 7.76095 23.2969C7.76095 23.6725 7.47427 23.9771 7.11612 23.9771L4.10757 24.0131L3.9822 59.0739C3.9822 59.4324 3.69552 59.7186 3.35533 59.7007ZM22.4647 8.18346C22.2854 8.18346 22.1066 8.112 21.9812 7.96869C21.8558 7.82537 21.784 7.64612 21.784 7.46728L21.8738 3.61727C21.8738 3.24121 22.178 2.93701 22.5362 2.93701L58.4807 2.88312C58.8388 2.88312 59.1435 3.20528 59.1255 3.58134C59.1255 3.97536 58.8209 4.27996 58.4447 4.27996L23.181 4.33346L23.1096 7.50321C23.1271 7.87926 22.8229 8.20143 22.4647 8.18346ZM0.793974 71C0.435822 71 0.149541 70.7134 0.149541 70.3553L0.203044 1.45074C0.00620072 1.25353 -0.0477016 0.949328 0.0421356 0.680658C0.0956387 0.537341 0.185077 0.429952 0.31045 0.340529C0.382319 0.215176 0.489725 0.125353 0.633065 0.0538939C0.722503 0.0179647 0.793974 2.13273e-07 0.883811 2.13273e-07C1.06269 2.13273e-07 1.24196 0.0718586 1.36734 0.215176L70.3548 0.0898231C70.7309 0.0898231 71.0172 0.411988 70.9992 0.806011C70.9816 1.18207 70.677 1.50423 70.3188 1.50423L2.67457 1.62959L12.5966 12.1768L19.3124 12.1049L19.2949 4.36938L9.40877 4.40531L13.4742 8.88169L16.25 8.7743V7.07325L13.3844 7.14471H13.3668C13.0082 7.14471 12.704 6.84051 12.704 6.46445C12.686 6.08839 12.9727 5.76623 13.3488 5.74827L16.9128 5.65884H16.9307C17.1096 5.65884 17.2709 5.7303 17.3963 5.85565C17.5217 5.98101 17.5931 6.17782 17.5931 6.35707L17.5752 9.43699C17.5752 9.81305 17.2889 10.0997 16.9487 10.1173L13.2414 10.2606C13.2235 10.2606 13.2235 10.2606 13.2055 10.2606C13.0262 10.2606 12.8473 10.1711 12.722 10.0458L7.36687 4.2081C7.18799 4.01129 7.13409 3.70669 7.22353 3.45599C7.33093 3.20528 7.56411 3.0444 7.83242 3.02643L19.9393 2.9905C19.9393 2.9905 19.9393 2.9905 19.9573 2.9905C20.1365 2.9905 20.2974 3.06236 20.4228 3.20528C20.5482 3.33063 20.6201 3.50988 20.6201 3.70669L20.638 12.8211C20.638 13.1972 20.3513 13.5018 19.9932 13.5018L12.9547 13.5732L12.8294 20.8257C12.8294 21.2018 12.5247 21.488 12.1666 21.488L3.48071 21.3627C3.30143 21.3627 3.14012 21.2912 3.01475 21.1479C2.88938 21.0225 2.81791 20.8433 2.81791 20.6645L2.85384 8.21939C2.85384 7.95072 3.01475 7.70002 3.24793 7.59263C3.33737 7.5567 3.4268 7.53874 3.49867 7.53874C3.65958 7.53874 3.83886 7.61059 3.96423 7.73595L9.56968 13.305C9.71302 13.4479 9.78489 13.6451 9.78489 13.8419L9.62358 17.674C9.60561 18.032 9.31893 18.3187 8.96078 18.3187L6.00573 18.3007C5.82686 18.3007 5.64758 18.2293 5.52221 18.0859C5.39684 17.9426 5.32537 17.7634 5.32537 17.5845L5.4148 13.9138C5.43277 13.5377 5.71945 13.2511 6.0776 13.2511H6.09557C6.47129 13.269 6.75797 13.5912 6.74 13.9673L6.65056 16.9218L8.28041 16.9398L8.38782 14.0746L4.10757 9.84898L4.14311 20.0018L11.5221 20.1091L11.6295 13.1796L1.52864 2.81166L1.42084 70.3732C1.42084 70.7313 1.15252 71 0.793974 71Z" fill="#D1CBAF"/>
</svg>
