<svg width="36" height="40" viewBox="0 0 36 40" fill="none" xmlns="http://www.w3.org/2000/svg">
<g filter="url(#filter0_d_107_85)">
<path fill-rule="evenodd" clip-rule="evenodd" d="M24.1127 4.59969L25.1829 3.23174C26.6761 3.88446 27.7555 4.35615 28.4216 4.64718C28.6573 4.75019 28.8413 4.83057 28.9734 4.88833C28.9734 4.88833 31.9008 19.7838 18.0539 26.3667C4.20685 19.7838 7.13425 4.88833 7.13425 4.88833C7.60636 4.68211 9.30409 3.94023 12.2273 2.66284C13.8102 1.97114 15.7524 1.12242 18.0539 0.116699L21.235 1.5139L20.6314 2.97217C19.426 2.40951 18.6592 2.05142 18.3305 1.89792C18.2575 1.86381 18.2061 1.83981 18.1763 1.8259C18.0988 1.78984 18.0089 1.78984 17.9314 1.8259L9.41153 5.80428C9.3258 5.84457 9.26454 5.92386 9.24817 6.01713C9.22499 6.14848 7.04981 18.7104 17.9226 24.2317C18.0054 24.2731 18.1023 24.2731 18.1851 24.2317C29.058 18.7104 26.8829 6.14259 26.8595 6.01713C26.8431 5.92386 26.7819 5.84457 26.6961 5.80428C26.5967 5.75772 26.2672 5.6041 25.7076 5.34324C25.2988 5.15266 24.7671 4.90483 24.1127 4.59969ZM18.0545 23.645C8.34498 18.6079 9.59868 7.66174 9.79994 6.26766C10.171 6.09436 10.7297 5.83334 11.4762 5.48463C12.9437 4.79909 15.1366 3.77469 18.0545 2.4118L20.1451 3.38883C19.6861 4.50568 19.3099 5.42125 19.0164 6.13557C18.586 7.18296 18.3335 7.79763 18.2586 7.97962C18.2207 8.07124 18.2317 8.17518 18.2878 8.25686C18.3443 8.33835 18.4388 8.38563 18.5385 8.38213C18.6361 8.37823 19.0665 8.36156 19.8294 8.33203L20.2647 8.31517L18.5676 10.8322C18.5351 10.8805 18.5176 10.9377 18.5176 10.9961C18.5181 11.157 18.6487 11.2871 18.8097 11.2871H20.7369C20.1828 12.4442 19.7206 13.4091 19.3505 14.182C18.7298 15.4782 18.3678 16.234 18.2644 16.4496C18.2096 16.5676 18.2392 16.7076 18.3373 16.7927C18.4585 16.8989 18.6429 16.886 18.7484 16.7646L24.9824 9.44967C25.0254 9.39779 25.0494 9.33304 25.0499 9.26534C25.0512 9.10437 24.9217 8.97247 24.7607 8.97137C24.6354 8.97687 24.0419 9.00356 22.9803 9.05129L22.7489 9.06169L23.1486 8.53813C23.9667 7.46664 24.4271 6.86351 24.5304 6.72849C24.5928 6.64387 24.6051 6.53239 24.5624 6.43673C24.517 6.33812 24.4202 6.27282 24.3117 6.26766C24.2661 6.265 24.1053 6.25639 23.8295 6.24163C23.6681 6.233 23.4673 6.22225 23.227 6.20935L24.0171 5.19718C24.7612 5.54467 25.3263 5.80868 25.7125 5.9891C26.0401 6.14211 26.2389 6.23499 26.309 6.26766C26.5102 7.66174 27.7639 18.6079 18.0545 23.645Z" fill="url(#paint0_linear_107_85)"/>
</g>
<defs>
<filter id="filter0_d_107_85" x="0.253824" y="0.116699" width="35.6" height="39.4938" filterUnits="userSpaceOnUse" color-interpolation-filters="sRGB">
<feFlood flood-opacity="0" result="BackgroundImageFix"/>
<feColorMatrix in="SourceAlpha" type="matrix" values="0 0 0 0 0 0 0 0 0 0 0 0 0 0 0 0 0 0 127 0" result="hardAlpha"/>
<feOffset dy="6.62191"/>
<feGaussianBlur stdDeviation="3.31095"/>
<feComposite in2="hardAlpha" operator="out"/>
<feColorMatrix type="matrix" values="0 0 0 0 0 0 0 0 0 0 0 0 0 0 0 0 0 0 0.25 0"/>
<feBlend mode="normal" in2="BackgroundImageFix" result="effect1_dropShadow_107_85"/>
<feBlend mode="normal" in="SourceGraphic" in2="effect1_dropShadow_107_85" result="shape"/>
</filter>
<linearGradient id="paint0_linear_107_85" x1="6.87573" y1="-0.93599" x2="22.1048" y2="29.8655" gradientUnits="userSpaceOnUse">
<stop stop-color="#C1C1C1"/>
<stop offset="0.4375" stop-color="#F0F0F0"/>
<stop offset="1" stop-color="#9C9C9C"/>
</linearGradient>
</defs>
</svg>
