<svg width="55" height="56" viewBox="0 0 55 56" fill="none" xmlns="http://www.w3.org/2000/svg">
<g filter="url(#filter0_d_107_129)">
<path d="M28.6829 1.38833L27.3398 2.75117L27.34 2.77294C27.3362 2.77298 27.3326 2.77441 27.3297 2.77697L35.8911 7.02267C33.2816 5.77645 30.8848 3.57654 28.6829 1.38833ZM28.6829 1.38833L27.3397 2.73987M28.6829 1.38833C28.3197 1.03038 27.8315 0.827578 27.3216 0.822754M27.3397 2.73987L18.7521 7.02267C21.3616 5.77645 23.7585 3.57654 25.9603 1.38833M27.3397 2.73987L27.3216 0.822754M27.3397 2.73987L27.3035 2.73987M27.3216 0.822754C26.8117 0.827578 26.3235 1.03038 25.9603 1.38833M27.3216 0.822754L27.3035 2.73987M25.9603 1.38833L27.3035 2.73987M25.9603 1.38833L27.3034 2.75116L27.3035 2.73987M39.9808 9.96174C41.6524 9.96174 43.3572 9.34457 44.6849 8.70769C44.7315 11.9646 44.562 17.0058 43.3793 21.0317L43.3792 21.0318C40.841 29.6733 35.3577 35.3805 27.5073 37.7769L27.228 37.8048C19.3284 35.425 13.8121 29.7071 11.264 21.0318L11.2639 21.0317C10.081 17.005 9.91029 11.9624 9.95765 8.70656C11.2846 9.34301 12.9903 9.96174 14.6624 9.96174C15.6812 9.96174 16.7072 9.80628 17.7385 9.49281C18.2255 9.34765 18.7034 9.17405 19.1698 8.97295H19.1939L19.5926 8.78255C22.5266 7.38131 25.1255 4.96685 27.3216 2.78505C29.5177 4.96685 32.1166 7.38131 35.0506 8.78255L35.0506 8.78257L35.0585 8.7863C35.6552 9.06796 36.2722 9.30411 36.9045 9.49272C37.9356 9.80618 38.9597 9.96174 39.9808 9.96174ZM46.5923 7.06363C46.587 6.89588 46.5381 6.73239 46.4505 6.58923C46.3629 6.44608 46.2395 6.32818 46.0926 6.24712C45.9456 6.16607 45.7801 6.12464 45.6123 6.12692C45.4444 6.1292 45.2801 6.1751 45.1354 6.26012C43.8248 7.02462 41.7848 8.01146 39.9808 8.01146C39.1598 8.01146 38.325 7.88665 37.4669 7.62531L46.5923 7.06363Z" stroke="url(#paint0_linear_107_129)" stroke-width="3.90055" shape-rendering="crispEdges"/>
</g>
<defs>
<filter id="filter0_d_107_129" x="0.199149" y="0.822754" width="54.244" height="54.5626" filterUnits="userSpaceOnUse" color-interpolation-filters="sRGB">
<feFlood flood-opacity="0" result="BackgroundImageFix"/>
<feColorMatrix in="SourceAlpha" type="matrix" values="0 0 0 0 0 0 0 0 0 0 0 0 0 0 0 0 0 0 127 0" result="hardAlpha"/>
<feOffset dy="7.8011"/>
<feGaussianBlur stdDeviation="3.90055"/>
<feComposite in2="hardAlpha" operator="out"/>
<feColorMatrix type="matrix" values="0 0 0 0 0 0 0 0 0 0 0 0 0 0 0 0 0 0 0.25 0"/>
<feBlend mode="normal" in2="BackgroundImageFix" result="effect1_dropShadow_107_129"/>
<feBlend mode="normal" in="SourceGraphic" in2="effect1_dropShadow_107_129" result="shape"/>
</filter>
<linearGradient id="paint0_linear_107_129" x1="8.00024" y1="-0.73966" x2="28.4651" y2="47.4634" gradientUnits="userSpaceOnUse">
<stop stop-color="#C1C1C1"/>
<stop offset="0.4375" stop-color="#F0F0F0"/>
<stop offset="1" stop-color="#9C9C9C"/>
</linearGradient>
</defs>
</svg>
