<svg width="91" height="92" viewBox="0 0 91 92" fill="none" xmlns="http://www.w3.org/2000/svg">
<g filter="url(#filter0_d_163_23)">
<path d="M29.5676 36.547L27.3495 43.1995L8.71938 39.7573L9.4929 37.4373L13.2305 38.1279L18.0767 23.5931L14.3391 22.9025L15.1126 20.5825L25.5432 22.5098L24.7696 24.8297L21.061 24.1445L16.2148 38.6793L25.3126 40.3602L26.7571 36.0278L29.5676 36.547Z" fill="#FBF9E8"/>
<path d="M43.1008 51.3953C42.3216 51.4217 41.572 51.2544 40.8521 50.8934C40.0268 50.4797 39.4938 49.9051 39.2531 49.1698C39.0123 48.4345 39.1062 47.6035 39.5346 46.6769C38.1292 47.1796 36.8708 47.4596 35.7595 47.5171C34.6481 47.5745 33.6271 47.3699 32.6965 46.9033C31.3268 46.2166 30.5138 45.2383 30.2574 43.9683C30.0185 42.7071 30.3833 41.2108 31.3518 39.4793L34.2286 34.3364L31.7527 33.0951L32.889 31.0636L37.9462 33.5991L33.9762 40.6963C33.4392 41.6563 33.2241 42.5033 33.3307 43.2372C33.4644 43.9628 33.9878 44.5545 34.9009 45.0123C36.253 45.6901 38.158 45.5806 40.6158 44.6836L43.7371 39.1035L41.4719 37.9679L42.6082 35.9364L47.4547 38.3662L42.4203 47.3663C41.9504 48.2064 42.014 48.776 42.611 49.0753C42.9622 49.2514 43.2728 49.3193 43.5426 49.279L43.1008 51.3953Z" fill="#FBF9E8"/>
<path d="M54.1871 60.263C51.7164 60.4099 49.5774 59.6669 47.7702 58.0339C46.8083 57.1647 46.0968 56.112 45.6356 54.8758C45.1744 53.6395 45.0358 52.3642 45.2196 51.0498C45.4159 49.7202 45.9663 48.4991 46.8709 47.3865C47.726 46.3349 48.7399 45.5854 49.9126 45.1381C51.0977 44.6756 52.2883 44.5484 53.4842 44.7566C54.6802 44.9648 55.7373 45.4837 56.6555 46.3134C58.1129 47.6303 58.8098 49.1985 58.7461 51.0181L59.8242 49.6921L61.3764 51.0946L58.3094 54.8667L57.3354 54.1056C57.8605 51.9363 57.3433 50.147 55.7838 48.738C55.1134 48.1322 54.3722 47.7533 53.5603 47.6013C52.7608 47.4341 51.9726 47.5018 51.1957 47.8044C50.4187 48.107 49.7266 48.6317 49.1194 49.3785C48.5246 50.1101 48.152 50.9103 48.0018 51.7791C47.8661 52.6612 47.9305 53.4992 48.1949 54.2934C48.4863 55.0854 48.9381 55.758 49.5502 56.3111C50.252 56.9717 50.984 57.4084 51.7463 57.6213C52.5232 57.8474 53.4127 57.9505 54.4149 57.9307L54.1871 60.263Z" fill="#FBF9E8"/>
<path d="M64.506 79.1488C63.7937 79.1214 63.146 78.961 62.563 78.6676C61.9801 78.3743 61.4596 77.8728 61.0015 77.1631C60.3091 76.0904 60.0768 74.8517 60.3046 73.4469C60.5324 72.0422 61.2173 70.6283 62.3593 69.2051C61.9268 68.4991 61.5878 67.7766 61.3423 67.0376C61.1117 66.2858 60.9192 65.4496 60.7649 64.529L57.7544 67.1288L59.3363 69.5795L57.5746 71.1008L52.781 63.6743L54.5427 62.153L56.2205 64.7523L67.9949 54.5844L66.3171 51.9851L68.0788 50.4638L71.2906 55.4395L64.6006 61.2167C67.0633 61.6603 68.8646 62.765 70.0044 64.5308C70.7714 65.7191 71.1281 66.9532 71.0745 68.2332C71.0315 69.5298 70.4897 70.6273 69.449 71.526C68.6165 72.245 67.7005 72.5476 66.701 72.434C65.7015 72.3204 64.7686 71.8795 63.9023 71.1112C63.2189 72.0612 62.8096 72.9158 62.6745 73.675C62.5543 74.4214 62.6646 75.0586 63.0055 75.5868C63.4742 76.3129 64.1339 76.7071 64.9844 76.7694L64.506 79.1488ZM62.1921 63.2965C62.5218 64.991 63.0808 66.4488 63.8691 67.67C64.4527 68.5025 65.0924 69.0811 65.7881 69.4056C66.4987 69.7173 67.1438 69.6227 67.7236 69.1221C68.2291 68.6856 68.4825 68.1455 68.4838 67.5018C68.4957 66.8746 68.2727 66.2062 67.8146 65.4966C67.3885 64.8364 66.7637 64.2451 65.9401 63.7225C65.1273 63.2165 64.1678 62.8241 63.0618 62.5455L62.1921 63.2965Z" fill="#FBF9E8"/>
</g>
<defs>
<filter id="filter0_d_163_23" x="4.44733" y="20.5825" width="78.5135" height="70.4789" filterUnits="userSpaceOnUse" color-interpolation-filters="sRGB">
<feFlood flood-opacity="0" result="BackgroundImageFix"/>
<feColorMatrix in="SourceAlpha" type="matrix" values="0 0 0 0 0 0 0 0 0 0 0 0 0 0 0 0 0 0 127 0" result="hardAlpha"/>
<feOffset dy="6.40805"/>
<feGaussianBlur stdDeviation="2.13602"/>
<feComposite in2="hardAlpha" operator="out"/>
<feColorMatrix type="matrix" values="0 0 0 0 0 0 0 0 0 0 0 0 0 0 0 0 0 0 0.44 0"/>
<feBlend mode="normal" in2="BackgroundImageFix" result="effect1_dropShadow_163_23"/>
<feBlend mode="normal" in="SourceGraphic" in2="effect1_dropShadow_163_23" result="shape"/>
</filter>
</defs>
</svg>
