<svg width="113" height="108" viewBox="0 0 113 108" fill="none" xmlns="http://www.w3.org/2000/svg">
<g filter="url(#filter0_i_160_13)">
<path d="M62.2481 62.521C60.8598 60.14 59.7096 57.0508 57.4851 55.3016C55.6672 53.8799 47.6707 56.9442 45.5944 57.5369C36.5691 60.0926 27.789 65.0556 22.0681 72.6552C17.3682 78.8827 15.4661 88.7914 19.9893 95.6118C21.4164 97.7719 23.4451 99.4494 25.771 100.568C29.5321 102.375 33.4837 100.423 37.2479 101.524C39.6953 102.234 40.9201 104.784 43.1529 105.865C46.4253 107.464 50.169 107.902 53.7497 107.273C54.1623 107.208 54.582 107.122 54.9798 107.02C61.1225 105.547 67.4736 99.1369 69.4148 93.3096C71.6265 86.6521 70.2329 79.2738 67.6274 72.9405C66.1287 69.3003 64.2324 65.9096 62.2481 62.521ZM110.187 51.2752C103.687 38.8601 87.5679 40.478 76.2543 44.0175C72.6048 45.1549 67.6479 46.9188 64.7315 49.4276C64.3538 49.7527 63.7671 50.2726 63.541 50.7048C63.2732 51.1916 63.3326 51.4874 63.5306 51.794C66.6108 56.7013 69.3389 61.8324 71.7431 67.1051C74.0134 72.1115 75.5854 77.6822 78.7538 82.2249C83.1166 88.5083 88.2962 90.3698 95.799 90.1944C98.5537 90.1279 101.049 88.7145 102.935 86.8537C105.698 84.15 107.885 81.0239 108.314 77.0755C108.5 75.3257 108.294 73.7168 108.055 71.936C107.787 69.9434 106.426 67.9116 108.381 66.3453C113.373 62.362 112.851 56.3659 110.187 51.2752ZM47.1479 51.7421C49.0186 50.932 50.9575 50.3382 52.885 49.8047C55.1141 49.1817 52.2397 43.4725 51.7797 42.4563C46.7944 31.3958 40.2727 17.4353 26.4126 16.4661C20.4862 16.0475 12.0373 19.8291 10.445 25.9918C9.8589 28.2657 10.4388 30.3928 10.4021 32.6713C3.17862 36.6019 -2.06266 46.1656 1.51938 54.0043C4.26637 60.005 10.8028 62.4094 17.1813 61.8167C28.2062 60.7953 37.2002 56.0388 47.1479 51.7421ZM60.2691 46.0486C63.8851 45.3175 67.2457 42.9058 70.5971 41.4459C78.0375 38.182 86.6993 37.2236 93.1415 31.928C94.7928 30.5791 95.5118 28.346 96.0148 26.3282C97.2688 21.3675 96.9068 15.3205 93.2384 11.433C89.058 7.01655 80.6003 6.7226 75.1791 8.8233C74.1455 9.22682 73.3541 9.24499 72.7857 8.2238C71.6199 6.18531 70.0418 4.50604 68.2209 3.28079C64.4629 0.767534 59.6619 0.119256 55.2161 2.03984C51.6677 3.5654 49.1557 6.67645 48.0075 10.3098C44.5597 21.2592 51.8638 35.2812 57.8186 44.222C58.3843 45.0769 59.1917 46.2718 60.2691 46.0486Z" fill="#235355"/>
</g>
<defs>
<filter id="filter0_i_160_13" x="0.363434" y="0.923096" width="111.812" height="110.544" filterUnits="userSpaceOnUse" color-interpolation-filters="sRGB">
<feFlood flood-opacity="0" result="BackgroundImageFix"/>
<feBlend mode="normal" in="SourceGraphic" in2="BackgroundImageFix" result="shape"/>
<feColorMatrix in="SourceAlpha" type="matrix" values="0 0 0 0 0 0 0 0 0 0 0 0 0 0 0 0 0 0 127 0" result="hardAlpha"/>
<feOffset dy="3.91857"/>
<feGaussianBlur stdDeviation="1.95929"/>
<feComposite in2="hardAlpha" operator="arithmetic" k2="-1" k3="1"/>
<feColorMatrix type="matrix" values="0 0 0 0 0 0 0 0 0 0 0 0 0 0 0 0 0 0 0.45 0"/>
<feBlend mode="normal" in2="shape" result="effect1_innerShadow_160_13"/>
</filter>
</defs>
</svg>
