<svg width="53" height="56" viewBox="0 0 53 56" fill="none" xmlns="http://www.w3.org/2000/svg">
<g filter="url(#filter0_d_107_79)">
<path d="M35.1388 8.29026C36.1315 8.29026 37.0837 7.89588 37.7857 7.19388C38.4877 6.49188 38.882 5.53977 38.882 4.54699C38.882 3.55421 38.4877 2.60209 37.7857 1.90009C37.0837 1.19809 36.1315 0.803711 35.1388 0.803711C34.146 0.803711 33.1939 1.19809 32.4919 1.90009C31.7899 2.60209 31.3955 3.55421 31.3955 4.54699C31.3955 5.53977 31.7899 6.49188 32.4919 7.19388C33.1939 7.89588 34.146 8.29026 35.1388 8.29026ZM28.4009 34.306L30.2725 26.0708L34.2029 29.8141V41.0439H37.9462V27.0066L34.0158 23.2634L35.1388 17.6485C36.4211 19.1181 38.0032 20.2961 39.7788 21.1032C41.5545 21.9103 43.4823 22.3278 45.4328 22.3275V18.5843C42.1387 18.6404 39.0692 16.9185 37.3847 14.0923L35.5131 11.0977C34.8393 9.97474 33.6414 9.22608 32.3313 9.22608C31.7698 9.22608 31.3955 9.41325 30.834 9.41325L21.1015 13.5309V22.3275H24.8447V15.964L28.2137 14.6538L25.2191 29.8141L16.048 27.9425L15.2994 31.6857L28.4009 34.306ZM11.7433 14.841C11.2469 14.841 10.7708 14.6438 10.4198 14.2928C10.0688 13.9418 9.87164 13.4657 9.87164 12.9694C9.87164 12.473 10.0688 11.9969 10.4198 11.6459C10.7708 11.2949 11.2469 11.0977 11.7433 11.0977H17.3582V14.841H11.7433ZM13.6149 7.35444C13.1185 7.35444 12.6425 7.15725 12.2915 6.80625C11.9405 6.45525 11.7433 5.9792 11.7433 5.48281C11.7433 4.98642 11.9405 4.51036 12.2915 4.15936C12.6425 3.80836 13.1185 3.61117 13.6149 3.61117H22.9731V7.35444H13.6149ZM9.87164 22.3275C9.37525 22.3275 8.89919 22.1304 8.54819 21.7794C8.19719 21.4284 8 20.9523 8 20.4559C8 19.9595 8.19719 19.4835 8.54819 19.1325C8.89919 18.7815 9.37525 18.5843 9.87164 18.5843H17.3582V22.3275H9.87164Z" fill="url(#paint0_linear_107_79)"/>
</g>
<defs>
<filter id="filter0_d_107_79" x="0.93171" y="0.803711" width="51.5694" height="54.3768" filterUnits="userSpaceOnUse" color-interpolation-filters="sRGB">
<feFlood flood-opacity="0" result="BackgroundImageFix"/>
<feColorMatrix in="SourceAlpha" type="matrix" values="0 0 0 0 0 0 0 0 0 0 0 0 0 0 0 0 0 0 127 0" result="hardAlpha"/>
<feOffset dy="7.06829"/>
<feGaussianBlur stdDeviation="3.53415"/>
<feComposite in2="hardAlpha" operator="out"/>
<feColorMatrix type="matrix" values="0 0 0 0 0 0 0 0 0 0 0 0 0 0 0 0 0 0 0.25 0"/>
<feBlend mode="normal" in2="BackgroundImageFix" result="effect1_dropShadow_107_79"/>
<feBlend mode="normal" in="SourceGraphic" in2="effect1_dropShadow_107_79" result="shape"/>
</filter>
<linearGradient id="paint0_linear_107_79" x1="8" y1="-0.810018" x2="30.0752" y2="47.9573" gradientUnits="userSpaceOnUse">
<stop stop-color="#C1C1C1"/>
<stop offset="0.4375" stop-color="#F0F0F0"/>
<stop offset="1" stop-color="#9C9C9C"/>
</linearGradient>
</defs>
</svg>
