<svg width="50" height="64" viewBox="0 0 50 64" fill="none" xmlns="http://www.w3.org/2000/svg">
<g filter="url(#filter0_d_107_122)">
<path d="M13.4889 49.698C12.4533 47.6155 13.8105 45.3172 13.2927 43.1364C13.4561 39.6058 13.7657 35.8573 11.7394 32.6468C10.3541 30.3365 7.96051 28.2575 8.14766 25.4561C8.33208 22.3525 7.04269 19.3095 7.43961 16.2172C8.43151 14.1811 11.1175 13.3021 12.1316 11.2334C14.0137 9.99666 13.2436 7.25971 16.0809 6.8766C18.6078 6.36773 20.8314 5.20606 22.8596 3.82062C25.1304 2.38379 27.5407 0.886983 30.3402 0.455555C33.8972 0.0827245 33.9374 3.69109 35.8545 5.22011C38.7082 5.1269 42.3038 6.10147 42.5214 9.11598C43.0504 12.2309 41.2659 15.2132 41.6585 18.3333C41.8691 20.5935 40.049 22.3734 39.6283 24.4462C39.3047 27.2599 39.9757 30.6915 37.2527 32.763C35.9457 34.7693 36.3965 37.2739 35.2108 39.3673C34.1635 41.5786 35.0482 43.9366 34.5866 46.2013C33.4508 47.6053 33.0956 44.0568 32.7669 43.3605C32.6437 40.9125 28.5767 40.2518 28.5568 43.0833C28.5755 44.0784 27.7661 47.0696 26.8604 44.8361C27.2409 42.9579 26.7758 41.1626 24.8618 40.0702C24.519 38.5915 27.8394 39.1532 27.8991 37.386C27.9778 36.1397 30.8069 34.3746 30.2123 36.6064C29.4972 39.0963 33.195 40.1579 34.075 37.6115C35.6592 35.477 32.4094 32.7664 35.6537 31.4964C38.1724 30.1956 37.836 27.5248 38.0871 25.3362C37.9923 23.1132 40.1847 21.4252 39.9703 19.2084C39.6003 18.1352 40.7621 15.7091 38.2586 16.7251C37.278 17.4296 32.8671 16.1453 35.3593 18.0081C37.3934 18.3346 36.7142 19.6464 36.4195 20.7707C38.1319 22.6952 34.0216 22.065 34.4949 24.2166C34.0189 26.0616 31.5653 25.8402 30.8728 27.7085C29.493 28.6128 29.9523 30.5702 29.7869 31.3933C27.839 30.661 27.8675 28.0255 25.7655 27.2055C23.5186 25.7001 20.3413 25.208 17.6822 25.9869C15.4723 25.7861 18.2682 24.0206 16.7991 22.996C16.7578 21.869 18.2167 20.8283 16.2996 20.0305C14.7322 19.4209 15.3319 18.1976 16.8798 18.8322C18.4289 18.9117 20.2329 15.7968 20.1085 18.531C20.5581 19.7512 21.6042 21.0507 19.3276 21.0102C16.67 22.2545 19.9116 25.0966 22.1173 23.9415C24.3019 23.581 26.01 21.9492 26.8534 20.2121C26.8557 18.1225 25.9118 15.9801 25.3788 13.9175C24.3748 11.2029 21.1535 11.1258 18.7174 12.2378C15.7799 12.8203 12.6057 13.3628 10.2469 15.1107C8.32935 16.6593 9.67762 18.9991 9.52673 20.9441C9.8094 23.6742 9.1341 26.6483 10.9042 29.0902C12.2934 31.4324 14.6114 33.484 14.6383 36.285C15.2212 38.6272 14.4125 40.9673 14.7326 43.2838C15.3491 45.2641 15.7105 48.0158 14.0846 49.7418C13.8947 49.8162 13.662 49.8018 13.4892 49.698H13.4889ZM29.0695 18.9014C31.0369 16.8001 29.2602 14.1427 28.6851 11.9026C28.7755 9.42268 26.3594 7.43619 23.6461 8.81683C21.1086 9.50663 18.7852 10.9332 16.0189 10.7512C14.6313 10.436 12.6202 12.4927 15.1046 11.9314C18.0822 11.573 20.9332 9.75199 24.0016 10.4846C26.5282 11.4239 26.3243 14.3493 27.3563 16.281C27.8601 16.9084 27.6834 19.5323 29.0695 18.9018V18.9014ZM32.5782 16.4249C33.1478 14.363 31.8577 12.2563 31.9111 10.1814C31.0377 8.36244 30.695 5.05323 27.6491 5.4617C24.1525 6.0367 20.9628 7.50575 17.5949 8.46113C15.6317 8.22674 15.8458 10.5425 17.6927 9.47956C20.4123 8.71163 23.0398 7.63288 25.8388 7.11887C29.0204 6.76283 29.6064 10.2146 30.2759 12.2117C30.9067 13.371 30.6591 16.5877 32.5786 16.4249H32.5782ZM37.7315 14.5333C40.5458 14.1194 41.5712 11.4174 41.1501 9.22872C41.1049 7.13052 36.6795 5.41886 35.727 7.54927C36.2795 9.2366 39.4377 7.72369 39.7539 9.95896C40.9399 12.8487 36.9743 11.9664 35.2404 11.4033C32.8363 11.1953 33.6399 15.0168 35.8806 14.6276C36.4971 14.6817 37.1275 14.6615 37.7315 14.5333ZM38.3409 11.0494C40.044 8.81443 33.6395 8.7572 35.4822 10.4857C36.4472 10.6265 37.3591 10.9901 38.3409 11.0494ZM33.4722 8.83705C35.3426 6.83685 33.3155 3.64483 31.5699 2.16516C29.1498 1.7704 26.458 3.39776 24.8158 4.63893C26.6611 4.58993 28.8777 3.32066 30.541 4.79828C32.3474 5.62275 31.4771 8.25964 33.4722 8.83705Z" fill="url(#paint0_linear_107_122)"/>
</g>
<defs>
<filter id="filter0_d_107_122" x="0.424996" y="0.428711" width="49.1336" height="63.2364" filterUnits="userSpaceOnUse" color-interpolation-filters="sRGB">
<feFlood flood-opacity="0" result="BackgroundImageFix"/>
<feColorMatrix in="SourceAlpha" type="matrix" values="0 0 0 0 0 0 0 0 0 0 0 0 0 0 0 0 0 0 127 0" result="hardAlpha"/>
<feOffset dy="6.93828"/>
<feGaussianBlur stdDeviation="3.46914"/>
<feComposite in2="hardAlpha" operator="out"/>
<feColorMatrix type="matrix" values="0 0 0 0 0 0 0 0 0 0 0 0 0 0 0 0 0 0 0.25 0"/>
<feBlend mode="normal" in2="BackgroundImageFix" result="effect1_dropShadow_107_122"/>
<feBlend mode="normal" in="SourceGraphic" in2="effect1_dropShadow_107_122" result="shape"/>
</filter>
<linearGradient id="paint0_linear_107_122" x1="7.36328" y1="-1.55073" x2="38.8954" y2="51.9373" gradientUnits="userSpaceOnUse">
<stop stop-color="#C1C1C1"/>
<stop offset="0.4375" stop-color="#F0F0F0"/>
<stop offset="1" stop-color="#9C9C9C"/>
</linearGradient>
</defs>
</svg>
