<svg width="30" height="37" viewBox="0 0 30 37" fill="none" xmlns="http://www.w3.org/2000/svg">
<path fill-rule="evenodd" clip-rule="evenodd" d="M7.03787 14.6935L8.2462 2.18353L6.77381 2.32713C6.60581 4.10415 5.35848 5.61532 3.64488 6.11548L4.44249 14.6935H7.03787ZM2.77075 14.6935L1.59002 1.99214C1.54764 1.53575 1.88157 1.13111 2.33796 1.08672L8.45339 0.490405C8.59448 0.174977 8.92336 -0.0313998 9.2894 0.00392554L16.8364 0.700236C17.0656 0.521574 17.3818 0.468252 17.6671 0.587894L28.7625 5.19579C28.9668 5.28011 29.129 5.44273 29.2137 5.64661C29.2972 5.85049 29.2972 6.08003 29.2117 6.28391L25.7214 14.6935H26.7491C27.2093 14.6935 27.5813 15.0663 27.5813 15.5265V22.3993L28.5965 22.4005C29.0554 22.4005 29.4281 22.7735 29.4281 23.2328V28.9618C29.4281 29.1831 29.3396 29.395 29.1832 29.5509C29.0273 29.7073 28.816 29.7948 28.5954 29.7948H28.5941L27.5813 29.7936V35.9425C27.5813 36.4026 27.2093 36.7754 26.7491 36.7754H0.83204C0.372745 36.7754 0 36.4026 0 35.9431V15.5265C0 15.0663 0.372076 14.6935 0.83204 14.6935H2.77075ZM25.917 29.7918L21.7423 29.7872C21.7142 29.7896 21.6861 29.791 21.658 29.791C19.6194 29.791 17.962 28.1325 17.962 26.0938C17.962 24.0465 19.6194 22.3887 21.658 22.3887C21.685 22.3887 21.7111 22.39 21.7368 22.3925L25.917 22.3974V16.3587H1.66475V17.537H23.3964C23.8559 17.537 24.2293 17.9093 24.2293 18.3692C24.2293 18.8287 23.8559 19.2017 23.3964 19.2017H1.66475V32.2672H23.7C24.1595 32.2672 24.532 32.64 24.532 33.0995C24.532 33.5597 24.1588 33.9324 23.6993 33.9324H1.66475V35.1102H25.917V29.7918ZM23.9196 14.6935L26.0282 9.61325C24.545 8.63204 23.8 6.82834 24.1579 5.08558L20.9957 3.77263C20.1778 5.00831 18.7895 5.73205 17.3419 5.73205C17.0519 5.73205 16.7599 5.70312 16.4696 5.64345L12.7128 14.6935H13.9769C13.9128 14.1098 13.9921 13.528 14.2161 12.9878C15.0325 11.0214 17.5362 10.1847 19.7983 11.1236C21.3986 11.7885 22.4936 13.2026 22.6586 14.6935H23.9196ZM20.9799 14.6935C20.8178 13.859 20.1322 13.0649 19.1606 12.661C17.747 12.0739 16.2181 12.5071 15.753 13.6249C15.6163 13.9555 15.5862 14.3229 15.6603 14.6935H20.9799ZM10.9103 14.6935L16.056 2.29999L13.4132 2.0564C12.9151 3.77038 11.4061 5.02003 9.62836 5.18882L8.71071 14.6935H10.9103ZM5.06594 2.49369C4.87889 3.34557 4.28737 4.06226 3.48599 4.40658L3.32392 2.66358L5.06594 2.49369ZM9.93441 2.01889L9.79317 3.48178C10.2125 3.39058 10.6063 3.20008 10.9457 2.91852C11.2815 2.63943 11.5398 2.29066 11.7064 1.8991L10.1417 1.75488L10.1652 1.99638L9.93441 2.01889ZM27.3563 6.41351L26.6861 8.02813C26.0255 7.46479 25.6722 6.60964 25.7425 5.74348L27.3563 6.41351ZM17.1276 4.05823C17.9932 4.12817 18.8475 3.77501 19.411 3.11465L17.7974 2.4447L17.1276 4.05823ZM22.9117 26.0858C22.9117 26.6281 22.4715 27.0684 21.9299 27.0684C21.387 27.0684 20.9482 26.6281 20.9482 26.0858C20.9482 25.544 21.387 25.1039 21.9299 25.1039C22.4715 25.1039 22.9117 25.544 22.9117 26.0858ZM27.7634 28.1293L21.5235 28.122C20.4657 28.0515 19.6274 27.1693 19.6268 26.0858C19.6268 24.9872 20.5025 24.0896 21.5927 24.0546C21.6145 24.0564 21.6357 24.0577 21.658 24.0577L27.7634 24.0646V28.1293Z" fill="url(#paint0_linear_120_15)"/>
<defs>
<linearGradient id="paint0_linear_120_15" x1="1.43692" y1="-0.861925" x2="36.1214" y2="29.0017" gradientUnits="userSpaceOnUse">
<stop stop-color="#EAD478"/>
<stop offset="0.307292" stop-color="#DFC178"/>
<stop offset="0.494792" stop-color="#FFF3CA"/>
<stop offset="0.75" stop-color="#EDDC80"/>
<stop offset="1" stop-color="#C09C50"/>
</linearGradient>
</defs>
</svg>
